<mxfile host="app.diagrams.net" modified="2023-08-31T13:17:11.793Z" agent="Mozilla/5.0 (Windows NT 10.0; Win64; x64) AppleWebKit/537.36 (KHTML, like Gecko) Chrome/116.0.0.0 Safari/537.36" etag="XHzfOprQL_LscKf6TIUa" version="21.7.1" type="github">
  <diagram name="Page-1" id="oqXGERug1uuN-IvBzlKQ">
    <mxGraphModel dx="1242" dy="1927" grid="1" gridSize="10" guides="1" tooltips="1" connect="1" arrows="1" fold="1" page="1" pageScale="1" pageWidth="827" pageHeight="1169" background="#000033" math="0" shadow="0">
      <root>
        <mxCell id="0" />
        <mxCell id="1" parent="0" />
        <mxCell id="LO9D87MCyvLMnB-GvMRJ-3" style="edgeStyle=orthogonalEdgeStyle;rounded=0;orthogonalLoop=1;jettySize=auto;html=1;exitX=0.5;exitY=1;exitDx=0;exitDy=0;labelBackgroundColor=none;fontColor=default;" parent="1" source="LO9D87MCyvLMnB-GvMRJ-1" edge="1">
          <mxGeometry relative="1" as="geometry">
            <mxPoint x="345" y="300" as="targetPoint" />
          </mxGeometry>
        </mxCell>
        <mxCell id="LO9D87MCyvLMnB-GvMRJ-1" value="" style="rounded=0;whiteSpace=wrap;html=1;labelBackgroundColor=none;fillColor=#000000;strokeColor=#FFFFFF;" parent="1" vertex="1">
          <mxGeometry x="40" y="90" width="560" height="230" as="geometry" />
        </mxCell>
        <mxCell id="LO9D87MCyvLMnB-GvMRJ-2" value="" style="rounded=0;whiteSpace=wrap;html=1;labelBackgroundColor=none;fillColor=#000000;strokeColor=#FFFFFF;" parent="1" vertex="1">
          <mxGeometry x="40" y="390" width="560" height="450" as="geometry" />
        </mxCell>
        <mxCell id="LO9D87MCyvLMnB-GvMRJ-4" value="" style="rounded=0;whiteSpace=wrap;html=1;dashed=1;labelBackgroundColor=none;strokeColor=#FFFFFF;fillColor=#000033;" parent="1" vertex="1">
          <mxGeometry x="270" y="420" width="290" height="220" as="geometry" />
        </mxCell>
        <mxCell id="LO9D87MCyvLMnB-GvMRJ-5" value="" style="rounded=0;whiteSpace=wrap;html=1;dashed=1;labelBackgroundColor=none;strokeColor=#FFFFFF;fillColor=#000066;" parent="1" vertex="1">
          <mxGeometry x="260" y="730" width="300" height="80" as="geometry" />
        </mxCell>
        <mxCell id="LO9D87MCyvLMnB-GvMRJ-12" value="" style="image;aspect=fixed;html=1;points=[];align=center;fontSize=12;image=img/lib/azure2/networking/Web_Application_Firewall_Policies_WAF.svg;labelBackgroundColor=none;" parent="1" vertex="1">
          <mxGeometry x="116.8" y="152" width="48" height="48" as="geometry" />
        </mxCell>
        <mxCell id="0uc-5ro3ScA0iMTsEKho-19" value="" style="edgeStyle=orthogonalEdgeStyle;rounded=0;orthogonalLoop=1;jettySize=auto;html=1;" parent="1" source="LO9D87MCyvLMnB-GvMRJ-13" target="LO9D87MCyvLMnB-GvMRJ-17" edge="1">
          <mxGeometry relative="1" as="geometry" />
        </mxCell>
        <mxCell id="LO9D87MCyvLMnB-GvMRJ-13" value="" style="rounded=0;whiteSpace=wrap;html=1;dashed=1;labelBackgroundColor=none;fillColor=#000033;strokeColor=#FFFFFF;" parent="1" vertex="1">
          <mxGeometry x="330" y="190" width="250" height="110" as="geometry" />
        </mxCell>
        <mxCell id="LO9D87MCyvLMnB-GvMRJ-15" value="" style="image;aspect=fixed;perimeter=ellipsePerimeter;html=1;align=center;shadow=0;dashed=0;spacingTop=3;image=img/lib/active_directory/web_server.svg;labelBackgroundColor=none;" parent="1" vertex="1">
          <mxGeometry x="360" y="220" width="40" height="50" as="geometry" />
        </mxCell>
        <mxCell id="LO9D87MCyvLMnB-GvMRJ-17" value="" style="sketch=0;points=[[0.015,0.015,0],[0.985,0.015,0],[0.985,0.985,0],[0.015,0.985,0],[0.25,0,0],[0.5,0,0],[0.75,0,0],[1,0.25,0],[1,0.5,0],[1,0.75,0],[0.75,1,0],[0.5,1,0],[0.25,1,0],[0,0.75,0],[0,0.5,0],[0,0.25,0]];verticalLabelPosition=bottom;html=1;verticalAlign=top;aspect=fixed;align=center;pointerEvents=1;shape=mxgraph.cisco19.rect;prIcon=firewall;labelBackgroundColor=none;" parent="1" vertex="1">
          <mxGeometry x="211.60000000000002" y="220" width="38.4" height="30" as="geometry" />
        </mxCell>
        <mxCell id="LO9D87MCyvLMnB-GvMRJ-18" value="" style="sketch=0;points=[[0.015,0.015,0],[0.985,0.015,0],[0.985,0.985,0],[0.015,0.985,0],[0.25,0,0],[0.5,0,0],[0.75,0,0],[1,0.25,0],[1,0.5,0],[1,0.75,0],[0.75,1,0],[0.5,1,0],[0.25,1,0],[0,0.75,0],[0,0.5,0],[0,0.25,0]];verticalLabelPosition=bottom;html=1;verticalAlign=top;aspect=fixed;align=center;pointerEvents=1;shape=mxgraph.cisco19.rect;prIcon=firewall;labelBackgroundColor=none;" parent="1" vertex="1">
          <mxGeometry x="430.79999999999995" y="340" width="38.4" height="30" as="geometry" />
        </mxCell>
        <mxCell id="LO9D87MCyvLMnB-GvMRJ-19" value="" style="sketch=0;points=[[0.015,0.015,0],[0.985,0.015,0],[0.985,0.985,0],[0.015,0.985,0],[0.25,0,0],[0.5,0,0],[0.75,0,0],[1,0.25,0],[1,0.5,0],[1,0.75,0],[0.75,1,0],[0.5,1,0],[0.25,1,0],[0,0.75,0],[0,0.5,0],[0,0.25,0]];verticalLabelPosition=bottom;html=1;verticalAlign=top;aspect=fixed;align=center;pointerEvents=1;shape=mxgraph.cisco19.rect;prIcon=firewall;labelBackgroundColor=none;" parent="1" vertex="1">
          <mxGeometry x="211.6" y="480" width="38.4" height="30" as="geometry" />
        </mxCell>
        <mxCell id="LO9D87MCyvLMnB-GvMRJ-20" value="" style="sketch=0;points=[[0.015,0.015,0],[0.985,0.015,0],[0.985,0.985,0],[0.015,0.985,0],[0.25,0,0],[0.5,0,0],[0.75,0,0],[1,0.25,0],[1,0.5,0],[1,0.75,0],[0.75,1,0],[0.5,1,0],[0.25,1,0],[0,0.75,0],[0,0.5,0],[0,0.25,0]];verticalLabelPosition=bottom;html=1;verticalAlign=top;aspect=fixed;align=center;pointerEvents=1;shape=mxgraph.cisco19.rect;prIcon=firewall;labelBackgroundColor=none;" parent="1" vertex="1">
          <mxGeometry x="350" y="555" width="38.4" height="30" as="geometry" />
        </mxCell>
        <mxCell id="LO9D87MCyvLMnB-GvMRJ-21" value="" style="image;aspect=fixed;perimeter=ellipsePerimeter;html=1;align=center;shadow=0;dashed=0;spacingTop=3;image=img/lib/active_directory/generic_server.svg;labelBackgroundColor=none;" parent="1" vertex="1">
          <mxGeometry x="283.2" y="545" width="28.000000000000004" height="50" as="geometry" />
        </mxCell>
        <mxCell id="LO9D87MCyvLMnB-GvMRJ-22" value="" style="sketch=0;points=[[0.015,0.015,0],[0.985,0.015,0],[0.985,0.985,0],[0.015,0.985,0],[0.25,0,0],[0.5,0,0],[0.75,0,0],[1,0.25,0],[1,0.5,0],[1,0.75,0],[0.75,1,0],[0.5,1,0],[0.25,1,0],[0,0.75,0],[0,0.5,0],[0,0.25,0]];verticalLabelPosition=bottom;html=1;verticalAlign=top;aspect=fixed;align=center;pointerEvents=1;shape=mxgraph.cisco19.rect;prIcon=firewall;labelBackgroundColor=none;" parent="1" vertex="1">
          <mxGeometry x="400" y="670" width="38.4" height="30" as="geometry" />
        </mxCell>
        <mxCell id="LO9D87MCyvLMnB-GvMRJ-25" value="DMZ&amp;nbsp;" style="text;html=1;align=center;verticalAlign=middle;whiteSpace=wrap;rounded=0;fontStyle=1;labelBackgroundColor=none;fontColor=#FFFFFF;fontSize=16;" parent="1" vertex="1">
          <mxGeometry x="36.60000000000002" y="66" width="60" height="30" as="geometry" />
        </mxCell>
        <mxCell id="LO9D87MCyvLMnB-GvMRJ-26" value="" style="sketch=0;aspect=fixed;pointerEvents=1;shadow=0;dashed=0;html=1;strokeColor=none;labelPosition=center;verticalLabelPosition=bottom;verticalAlign=top;align=center;fillColor=#004C99;shape=mxgraph.mscae.enterprise.database_server" parent="1" vertex="1">
          <mxGeometry x="414" y="740" width="38" height="50" as="geometry" />
        </mxCell>
        <mxCell id="LO9D87MCyvLMnB-GvMRJ-28" value="Mail Service" style="rounded=1;arcSize=10;whiteSpace=wrap;html=1;align=center;fontColor=#FFFFFF;fillColor=#000033;strokeColor=#FFFFFF;" parent="1" vertex="1">
          <mxGeometry x="820" y="380" width="100" height="40" as="geometry" />
        </mxCell>
        <mxCell id="LO9D87MCyvLMnB-GvMRJ-27" value="" style="sketch=0;aspect=fixed;pointerEvents=1;shadow=0;dashed=0;html=1;strokeColor=none;labelPosition=center;verticalLabelPosition=bottom;verticalAlign=top;align=center;fillColor=#004C99;shape=mxgraph.mscae.enterprise.application_server" parent="1" vertex="1">
          <mxGeometry x="415.2" y="470" width="43" height="50" as="geometry" />
        </mxCell>
        <mxCell id="LO9D87MCyvLMnB-GvMRJ-29" value="SMS Services" style="rounded=1;arcSize=10;whiteSpace=wrap;html=1;align=center;fontColor=#FFFFFF;fillColor=#000033;strokeColor=#FFFFFF;" parent="1" vertex="1">
          <mxGeometry x="700" y="410" width="100" height="40" as="geometry" />
        </mxCell>
        <mxCell id="LO9D87MCyvLMnB-GvMRJ-30" value="CRM Services" style="rounded=1;arcSize=10;whiteSpace=wrap;html=1;align=center;fontColor=#FFFFFF;fillColor=#000033;strokeColor=#FFFFFF;" parent="1" vertex="1">
          <mxGeometry x="820" y="440" width="100" height="40" as="geometry" />
        </mxCell>
        <mxCell id="LO9D87MCyvLMnB-GvMRJ-31" value="Contact Center Services" style="rounded=1;arcSize=10;whiteSpace=wrap;html=1;align=center;fontColor=#FFFFFF;fillColor=#000033;strokeColor=#FFFFFF;" parent="1" vertex="1">
          <mxGeometry x="700" y="350" width="100" height="40" as="geometry" />
        </mxCell>
        <mxCell id="LO9D87MCyvLMnB-GvMRJ-32" value="EDMS Services" style="rounded=1;arcSize=10;whiteSpace=wrap;html=1;align=center;fontColor=#FFFFFF;fillColor=#000033;strokeColor=#FFFFFF;" parent="1" vertex="1">
          <mxGeometry x="700" y="470" width="100" height="40" as="geometry" />
        </mxCell>
        <mxCell id="LO9D87MCyvLMnB-GvMRJ-33" value="LOS Services" style="rounded=1;arcSize=10;whiteSpace=wrap;html=1;align=center;fontColor=#FFFFFF;fillColor=#000033;strokeColor=#FFFFFF;" parent="1" vertex="1">
          <mxGeometry x="700" y="530" width="100" height="40" as="geometry" />
        </mxCell>
        <mxCell id="LO9D87MCyvLMnB-GvMRJ-34" value="EIS Services" style="rounded=1;arcSize=10;whiteSpace=wrap;html=1;align=center;fontColor=#FFFFFF;fillColor=#000033;strokeColor=#FFFFFF;" parent="1" vertex="1">
          <mxGeometry x="820" y="500" width="100" height="40" as="geometry" />
        </mxCell>
        <mxCell id="LO9D87MCyvLMnB-GvMRJ-35" value="MZ&amp;nbsp;" style="text;html=1;align=center;verticalAlign=middle;whiteSpace=wrap;rounded=0;fontStyle=1;labelBackgroundColor=none;fontColor=#FFFFFF;fontSize=16;" parent="1" vertex="1">
          <mxGeometry x="30.00000000000002" y="360" width="60" height="30" as="geometry" />
        </mxCell>
        <mxCell id="LO9D87MCyvLMnB-GvMRJ-36" value="SBI CARD Services" style="rounded=1;arcSize=10;whiteSpace=wrap;html=1;align=center;fontColor=#FFFFFF;fillColor=#000033;strokeColor=#FFFFFF;" parent="1" vertex="1">
          <mxGeometry x="820" y="560" width="100" height="40" as="geometry" />
        </mxCell>
        <mxCell id="LO9D87MCyvLMnB-GvMRJ-39" value="" style="rounded=0;whiteSpace=wrap;html=1;dashed=1;labelBackgroundColor=none;strokeColor=#FFFFFF;fillColor=#000066;" parent="1" vertex="1">
          <mxGeometry x="60" y="420" width="130" height="220" as="geometry" />
        </mxCell>
        <mxCell id="LO9D87MCyvLMnB-GvMRJ-40" value="" style="rounded=0;whiteSpace=wrap;html=1;dashed=1;labelBackgroundColor=none;strokeColor=#FFFFFF;fillColor=#000066;" parent="1" vertex="1">
          <mxGeometry x="51.6" y="730" width="148.4" height="90" as="geometry" />
        </mxCell>
        <mxCell id="LO9D87MCyvLMnB-GvMRJ-42" value="" style="sketch=0;aspect=fixed;pointerEvents=1;shadow=0;dashed=0;html=1;strokeColor=none;labelPosition=center;verticalLabelPosition=bottom;verticalAlign=top;align=center;fillColor=#004C99;shape=mxgraph.mscae.enterprise.database_server" parent="1" vertex="1">
          <mxGeometry x="57" y="740" width="38" height="50" as="geometry" />
        </mxCell>
        <mxCell id="LO9D87MCyvLMnB-GvMRJ-43" value="" style="image;aspect=fixed;perimeter=ellipsePerimeter;html=1;align=center;shadow=0;dashed=0;spacingTop=3;image=img/lib/active_directory/windows_server.svg;labelBackgroundColor=none;" parent="1" vertex="1">
          <mxGeometry x="100" y="495" width="41" height="50" as="geometry" />
        </mxCell>
        <mxCell id="LO9D87MCyvLMnB-GvMRJ-44" value="" style="sketch=0;points=[[0.015,0.015,0],[0.985,0.015,0],[0.985,0.985,0],[0.015,0.985,0],[0.25,0,0],[0.5,0,0],[0.75,0,0],[1,0.25,0],[1,0.5,0],[1,0.75,0],[0.75,1,0],[0.5,1,0],[0.25,1,0],[0,0.75,0],[0,0.5,0],[0,0.25,0]];verticalLabelPosition=bottom;html=1;verticalAlign=top;aspect=fixed;align=center;pointerEvents=1;shape=mxgraph.cisco19.rect;prIcon=firewall;labelBackgroundColor=none;" parent="1" vertex="1">
          <mxGeometry x="99.60000000000001" y="670" width="38.4" height="30" as="geometry" />
        </mxCell>
        <mxCell id="LO9D87MCyvLMnB-GvMRJ-49" value="" style="ellipse;whiteSpace=wrap;html=1;fillColor=#000000;" parent="1" vertex="1">
          <mxGeometry x="26.8" y="-130" width="220" height="150" as="geometry" />
        </mxCell>
        <mxCell id="LO9D87MCyvLMnB-GvMRJ-48" value="" style="sketch=0;outlineConnect=0;fontColor=#232F3E;gradientColor=none;fillColor=#232F3D;strokeColor=none;dashed=0;verticalLabelPosition=bottom;verticalAlign=top;align=center;html=1;fontSize=12;fontStyle=0;aspect=fixed;pointerEvents=1;shape=mxgraph.aws4.users;" parent="1" vertex="1">
          <mxGeometry x="71" y="-90" width="70" height="70" as="geometry" />
        </mxCell>
        <mxCell id="0uc-5ro3ScA0iMTsEKho-7" style="edgeStyle=orthogonalEdgeStyle;rounded=0;orthogonalLoop=1;jettySize=auto;html=1;exitX=1;exitY=0.5;exitDx=0;exitDy=0;exitPerimeter=0;" parent="1" source="0uc-5ro3ScA0iMTsEKho-68" target="LO9D87MCyvLMnB-GvMRJ-1" edge="1">
          <mxGeometry relative="1" as="geometry" />
        </mxCell>
        <mxCell id="0uc-5ro3ScA0iMTsEKho-17" value="" style="edgeStyle=orthogonalEdgeStyle;rounded=0;orthogonalLoop=1;jettySize=auto;html=1;" parent="1" source="LO9D87MCyvLMnB-GvMRJ-50" target="LO9D87MCyvLMnB-GvMRJ-51" edge="1">
          <mxGeometry relative="1" as="geometry" />
        </mxCell>
        <mxCell id="LO9D87MCyvLMnB-GvMRJ-50" value="" style="sketch=0;points=[[0.015,0.015,0],[0.985,0.015,0],[0.985,0.985,0],[0.015,0.985,0],[0.25,0,0],[0.5,0,0],[0.75,0,0],[1,0.25,0],[1,0.5,0],[1,0.75,0],[0.75,1,0],[0.5,1,0],[0.25,1,0],[0,0.75,0],[0,0.5,0],[0,0.25,0]];verticalLabelPosition=bottom;html=1;verticalAlign=top;aspect=fixed;align=center;pointerEvents=1;shape=mxgraph.cisco19.rect;prIcon=firewall;labelBackgroundColor=none;" parent="1" vertex="1">
          <mxGeometry x="121.60000000000002" y="50" width="38.4" height="30" as="geometry" />
        </mxCell>
        <mxCell id="LO9D87MCyvLMnB-GvMRJ-51" value="External Users" style="text;html=1;strokeColor=none;fillColor=none;align=center;verticalAlign=middle;whiteSpace=wrap;rounded=0;fontColor=#FFFFFF;fontSize=14;fontStyle=1" parent="1" vertex="1">
          <mxGeometry x="141" y="-70" width="90" height="40" as="geometry" />
        </mxCell>
        <mxCell id="LO9D87MCyvLMnB-GvMRJ-52" value="" style="ellipse;whiteSpace=wrap;html=1;fillColor=#000000;" parent="1" vertex="1">
          <mxGeometry x="390" y="-130" width="220" height="150" as="geometry" />
        </mxCell>
        <mxCell id="LO9D87MCyvLMnB-GvMRJ-53" value="" style="sketch=0;outlineConnect=0;fontColor=#232F3E;gradientColor=none;fillColor=#232F3D;strokeColor=none;dashed=0;verticalLabelPosition=bottom;verticalAlign=top;align=center;html=1;fontSize=12;fontStyle=0;aspect=fixed;pointerEvents=1;shape=mxgraph.aws4.users;" parent="1" vertex="1">
          <mxGeometry x="430" y="-85" width="70" height="70" as="geometry" />
        </mxCell>
        <mxCell id="LO9D87MCyvLMnB-GvMRJ-54" value="Internal Users" style="text;html=1;strokeColor=none;fillColor=none;align=center;verticalAlign=middle;whiteSpace=wrap;rounded=0;fontColor=#FFFFFF;fontSize=14;fontStyle=1" parent="1" vertex="1">
          <mxGeometry x="510" y="-75" width="90" height="40" as="geometry" />
        </mxCell>
        <mxCell id="LO9D87MCyvLMnB-GvMRJ-55" value="" style="sketch=0;points=[[0.015,0.015,0],[0.985,0.015,0],[0.985,0.985,0],[0.015,0.985,0],[0.25,0,0],[0.5,0,0],[0.75,0,0],[1,0.25,0],[1,0.5,0],[1,0.75,0],[0.75,1,0],[0.5,1,0],[0.25,1,0],[0,0.75,0],[0,0.5,0],[0,0.25,0]];verticalLabelPosition=bottom;html=1;verticalAlign=top;aspect=fixed;align=center;pointerEvents=1;shape=mxgraph.cisco19.rect;prIcon=firewall;labelBackgroundColor=none;" parent="1" vertex="1">
          <mxGeometry x="488.8" y="50" width="38.4" height="30" as="geometry" />
        </mxCell>
        <mxCell id="0uc-5ro3ScA0iMTsEKho-4" value="" style="edgeStyle=segmentEdgeStyle;endArrow=classic;html=1;curved=0;rounded=0;endSize=8;startSize=8;strokeColor=#FFFFFF;entryX=0.5;entryY=0;entryDx=0;entryDy=0;entryPerimeter=0;" parent="1" target="LO9D87MCyvLMnB-GvMRJ-50" edge="1">
          <mxGeometry width="50" height="50" relative="1" as="geometry">
            <mxPoint x="140" y="19" as="sourcePoint" />
            <mxPoint x="210" y="30" as="targetPoint" />
            <Array as="points">
              <mxPoint x="140" y="19" />
            </Array>
          </mxGeometry>
        </mxCell>
        <mxCell id="0uc-5ro3ScA0iMTsEKho-5" value="" style="edgeStyle=segmentEdgeStyle;endArrow=classic;html=1;curved=0;rounded=0;endSize=8;startSize=8;strokeColor=#FFFFFF;entryX=0.5;entryY=0;entryDx=0;entryDy=0;entryPerimeter=0;" parent="1" edge="1">
          <mxGeometry width="50" height="50" relative="1" as="geometry">
            <mxPoint x="503" y="19" as="sourcePoint" />
            <mxPoint x="504" y="50" as="targetPoint" />
            <Array as="points">
              <mxPoint x="503" y="19" />
            </Array>
          </mxGeometry>
        </mxCell>
        <mxCell id="0uc-5ro3ScA0iMTsEKho-10" value="" style="edgeStyle=segmentEdgeStyle;endArrow=classic;html=1;curved=0;rounded=0;endSize=8;startSize=8;" parent="1" edge="1">
          <mxGeometry width="50" height="50" relative="1" as="geometry">
            <mxPoint x="132" y="80" as="sourcePoint" />
            <mxPoint x="132" y="142" as="targetPoint" />
            <Array as="points">
              <mxPoint x="132" y="80" />
            </Array>
          </mxGeometry>
        </mxCell>
        <mxCell id="0uc-5ro3ScA0iMTsEKho-12" value="" style="edgeStyle=segmentEdgeStyle;endArrow=classic;html=1;curved=0;rounded=0;endSize=8;startSize=8;strokeColor=#FFFFFF;" parent="1" target="LO9D87MCyvLMnB-GvMRJ-12" edge="1">
          <mxGeometry width="50" height="50" relative="1" as="geometry">
            <mxPoint x="140" y="74" as="sourcePoint" />
            <mxPoint x="141" y="105" as="targetPoint" />
            <Array as="points">
              <mxPoint x="140" y="120" />
              <mxPoint x="140" y="120" />
            </Array>
          </mxGeometry>
        </mxCell>
        <mxCell id="0uc-5ro3ScA0iMTsEKho-15" value="" style="edgeStyle=segmentEdgeStyle;endArrow=classic;html=1;curved=0;rounded=0;endSize=8;startSize=8;strokeColor=#FFFFFF;exitX=0.25;exitY=1;exitDx=0;exitDy=0;exitPerimeter=0;" parent="1" source="LO9D87MCyvLMnB-GvMRJ-55" edge="1">
          <mxGeometry width="50" height="50" relative="1" as="geometry">
            <mxPoint x="506" y="111" as="sourcePoint" />
            <mxPoint x="506" y="189" as="targetPoint" />
            <Array as="points">
              <mxPoint x="506" y="80" />
            </Array>
          </mxGeometry>
        </mxCell>
        <mxCell id="0uc-5ro3ScA0iMTsEKho-16" value="" style="edgeStyle=segmentEdgeStyle;endArrow=classic;html=1;curved=0;rounded=0;endSize=8;startSize=8;strokeColor=#FFFFFF;entryX=0;entryY=0.5;entryDx=0;entryDy=0;entryPerimeter=0;" parent="1" target="LO9D87MCyvLMnB-GvMRJ-17" edge="1">
          <mxGeometry width="50" height="50" relative="1" as="geometry">
            <mxPoint x="150" y="199" as="sourcePoint" />
            <mxPoint x="150" y="277" as="targetPoint" />
            <Array as="points">
              <mxPoint x="150" y="235" />
            </Array>
          </mxGeometry>
        </mxCell>
        <mxCell id="0uc-5ro3ScA0iMTsEKho-18" value="" style="edgeStyle=segmentEdgeStyle;endArrow=classic;html=1;curved=0;rounded=0;endSize=8;startSize=8;strokeColor=#FFFFFF;exitX=0.985;exitY=0.985;exitDx=0;exitDy=0;exitPerimeter=0;" parent="1" source="LO9D87MCyvLMnB-GvMRJ-17" target="LO9D87MCyvLMnB-GvMRJ-13" edge="1">
          <mxGeometry width="50" height="50" relative="1" as="geometry">
            <mxPoint x="304" y="206" as="sourcePoint" />
            <mxPoint x="320" y="240" as="targetPoint" />
            <Array as="points">
              <mxPoint x="249" y="240" />
            </Array>
          </mxGeometry>
        </mxCell>
        <mxCell id="0uc-5ro3ScA0iMTsEKho-22" value="" style="endArrow=classic;html=1;rounded=0;strokeColor=#FFFFFF;exitX=0.25;exitY=1;exitDx=0;exitDy=0;exitPerimeter=0;" parent="1" source="LO9D87MCyvLMnB-GvMRJ-18" edge="1">
          <mxGeometry width="50" height="50" relative="1" as="geometry">
            <mxPoint x="448" y="375" as="sourcePoint" />
            <mxPoint x="430" y="465" as="targetPoint" />
          </mxGeometry>
        </mxCell>
        <mxCell id="0uc-5ro3ScA0iMTsEKho-23" value="" style="endArrow=classic;html=1;rounded=0;exitX=0.538;exitY=1.018;exitDx=0;exitDy=0;exitPerimeter=0;entryX=0.75;entryY=0;entryDx=0;entryDy=0;entryPerimeter=0;strokeColor=#FFFFFF;" parent="1" source="LO9D87MCyvLMnB-GvMRJ-13" target="LO9D87MCyvLMnB-GvMRJ-18" edge="1">
          <mxGeometry width="50" height="50" relative="1" as="geometry">
            <mxPoint x="390" y="390" as="sourcePoint" />
            <mxPoint x="440" y="340" as="targetPoint" />
          </mxGeometry>
        </mxCell>
        <mxCell id="0uc-5ro3ScA0iMTsEKho-24" value="" style="endArrow=classic;html=1;rounded=0;exitX=0;exitY=0.5;exitDx=0;exitDy=0;exitPerimeter=0;entryX=1;entryY=0.5;entryDx=0;entryDy=0;entryPerimeter=0;strokeColor=#FFFFFF;" parent="1" source="LO9D87MCyvLMnB-GvMRJ-27" target="LO9D87MCyvLMnB-GvMRJ-19" edge="1">
          <mxGeometry width="50" height="50" relative="1" as="geometry">
            <mxPoint x="390" y="590" as="sourcePoint" />
            <mxPoint x="440" y="540" as="targetPoint" />
          </mxGeometry>
        </mxCell>
        <mxCell id="0uc-5ro3ScA0iMTsEKho-25" value="" style="edgeStyle=elbowEdgeStyle;elbow=vertical;endArrow=classic;html=1;curved=0;rounded=0;endSize=8;startSize=8;exitX=0;exitY=1;exitDx=0;exitDy=0;exitPerimeter=0;entryX=0.5;entryY=0;entryDx=0;entryDy=0;entryPerimeter=0;strokeColor=#FFFFFF;" parent="1" source="LO9D87MCyvLMnB-GvMRJ-27" target="LO9D87MCyvLMnB-GvMRJ-20" edge="1">
          <mxGeometry width="50" height="50" relative="1" as="geometry">
            <mxPoint x="390" y="590" as="sourcePoint" />
            <mxPoint x="440" y="540" as="targetPoint" />
            <Array as="points">
              <mxPoint x="415" y="570" />
            </Array>
          </mxGeometry>
        </mxCell>
        <mxCell id="0uc-5ro3ScA0iMTsEKho-26" value="" style="endArrow=classic;html=1;rounded=0;exitX=0;exitY=0.5;exitDx=0;exitDy=0;exitPerimeter=0;entryX=1;entryY=0.5;entryDx=0;entryDy=0;strokeColor=#FFFFFF;" parent="1" source="LO9D87MCyvLMnB-GvMRJ-20" target="LO9D87MCyvLMnB-GvMRJ-21" edge="1">
          <mxGeometry width="50" height="50" relative="1" as="geometry">
            <mxPoint x="390" y="590" as="sourcePoint" />
            <mxPoint x="440" y="540" as="targetPoint" />
          </mxGeometry>
        </mxCell>
        <mxCell id="0uc-5ro3ScA0iMTsEKho-27" value="" style="endArrow=classic;html=1;rounded=0;entryX=0.5;entryY=0;entryDx=0;entryDy=0;entryPerimeter=0;strokeColor=#FFFFFF;exitX=0.5;exitY=0;exitDx=0;exitDy=0;" parent="1" source="0uc-5ro3ScA0iMTsEKho-57" target="LO9D87MCyvLMnB-GvMRJ-22" edge="1">
          <mxGeometry width="50" height="50" relative="1" as="geometry">
            <mxPoint x="390" y="590" as="sourcePoint" />
            <mxPoint x="440" y="540" as="targetPoint" />
          </mxGeometry>
        </mxCell>
        <mxCell id="0uc-5ro3ScA0iMTsEKho-28" value="" style="endArrow=classic;html=1;rounded=0;exitX=0;exitY=0.5;exitDx=0;exitDy=0;exitPerimeter=0;entryX=0.985;entryY=0.336;entryDx=0;entryDy=0;entryPerimeter=0;strokeColor=#FFFFFF;" parent="1" source="LO9D87MCyvLMnB-GvMRJ-19" target="LO9D87MCyvLMnB-GvMRJ-39" edge="1">
          <mxGeometry width="50" height="50" relative="1" as="geometry">
            <mxPoint x="390" y="590" as="sourcePoint" />
            <mxPoint x="440" y="540" as="targetPoint" />
          </mxGeometry>
        </mxCell>
        <mxCell id="0uc-5ro3ScA0iMTsEKho-29" value="" style="endArrow=classic;html=1;rounded=0;exitX=0.5;exitY=1;exitDx=0;exitDy=0;exitPerimeter=0;entryX=0.543;entryY=0.013;entryDx=0;entryDy=0;entryPerimeter=0;strokeColor=#FFFFFF;" parent="1" source="LO9D87MCyvLMnB-GvMRJ-22" target="LO9D87MCyvLMnB-GvMRJ-5" edge="1">
          <mxGeometry width="50" height="50" relative="1" as="geometry">
            <mxPoint x="390" y="590" as="sourcePoint" />
            <mxPoint x="440" y="540" as="targetPoint" />
          </mxGeometry>
        </mxCell>
        <mxCell id="0uc-5ro3ScA0iMTsEKho-30" value="" style="endArrow=classic;html=1;rounded=0;entryX=0.75;entryY=0;entryDx=0;entryDy=0;entryPerimeter=0;strokeColor=#FFFFFF;" parent="1" source="LO9D87MCyvLMnB-GvMRJ-39" edge="1">
          <mxGeometry width="50" height="50" relative="1" as="geometry">
            <mxPoint x="115" y="640" as="sourcePoint" />
            <mxPoint x="118.39999999999986" y="670" as="targetPoint" />
          </mxGeometry>
        </mxCell>
        <mxCell id="0uc-5ro3ScA0iMTsEKho-31" value="" style="endArrow=classic;html=1;rounded=0;exitX=0.5;exitY=1;exitDx=0;exitDy=0;exitPerimeter=0;entryX=0.5;entryY=0;entryDx=0;entryDy=0;strokeColor=#FFFFFF;" parent="1" source="LO9D87MCyvLMnB-GvMRJ-44" target="LO9D87MCyvLMnB-GvMRJ-40" edge="1">
          <mxGeometry width="50" height="50" relative="1" as="geometry">
            <mxPoint x="390" y="590" as="sourcePoint" />
            <mxPoint x="440" y="540" as="targetPoint" />
          </mxGeometry>
        </mxCell>
        <mxCell id="0uc-5ro3ScA0iMTsEKho-32" value="" style="sketch=0;points=[[0.015,0.015,0],[0.985,0.015,0],[0.985,0.985,0],[0.015,0.985,0],[0.25,0,0],[0.5,0,0],[0.75,0,0],[1,0.25,0],[1,0.5,0],[1,0.75,0],[0.75,1,0],[0.5,1,0],[0.25,1,0],[0,0.75,0],[0,0.5,0],[0,0.25,0]];verticalLabelPosition=bottom;html=1;verticalAlign=top;aspect=fixed;align=center;pointerEvents=1;shape=mxgraph.cisco19.rect;prIcon=firewall;labelBackgroundColor=none;" parent="1" vertex="1">
          <mxGeometry x="650" y="420" width="25.6" height="20" as="geometry" />
        </mxCell>
        <mxCell id="0uc-5ro3ScA0iMTsEKho-33" value="" style="sketch=0;points=[[0.015,0.015,0],[0.985,0.015,0],[0.985,0.985,0],[0.015,0.985,0],[0.25,0,0],[0.5,0,0],[0.75,0,0],[1,0.25,0],[1,0.5,0],[1,0.75,0],[0.75,1,0],[0.5,1,0],[0.25,1,0],[0,0.75,0],[0,0.5,0],[0,0.25,0]];verticalLabelPosition=bottom;html=1;verticalAlign=top;aspect=fixed;align=center;pointerEvents=1;shape=mxgraph.cisco19.rect;prIcon=firewall;labelBackgroundColor=none;" parent="1" vertex="1">
          <mxGeometry x="650" y="390" width="25.6" height="20" as="geometry" />
        </mxCell>
        <mxCell id="0uc-5ro3ScA0iMTsEKho-35" value="" style="sketch=0;points=[[0.015,0.015,0],[0.985,0.015,0],[0.985,0.985,0],[0.015,0.985,0],[0.25,0,0],[0.5,0,0],[0.75,0,0],[1,0.25,0],[1,0.5,0],[1,0.75,0],[0.75,1,0],[0.5,1,0],[0.25,1,0],[0,0.75,0],[0,0.5,0],[0,0.25,0]];verticalLabelPosition=bottom;html=1;verticalAlign=top;aspect=fixed;align=center;pointerEvents=1;shape=mxgraph.cisco19.rect;prIcon=firewall;labelBackgroundColor=none;" parent="1" vertex="1">
          <mxGeometry x="650" y="450" width="25.6" height="20" as="geometry" />
        </mxCell>
        <mxCell id="0uc-5ro3ScA0iMTsEKho-34" value="" style="sketch=0;points=[[0.015,0.015,0],[0.985,0.015,0],[0.985,0.985,0],[0.015,0.985,0],[0.25,0,0],[0.5,0,0],[0.75,0,0],[1,0.25,0],[1,0.5,0],[1,0.75,0],[0.75,1,0],[0.5,1,0],[0.25,1,0],[0,0.75,0],[0,0.5,0],[0,0.25,0]];verticalLabelPosition=bottom;html=1;verticalAlign=top;aspect=fixed;align=center;pointerEvents=1;shape=mxgraph.cisco19.rect;prIcon=firewall;labelBackgroundColor=none;" parent="1" vertex="1">
          <mxGeometry x="650" y="360" width="25.6" height="20" as="geometry" />
        </mxCell>
        <mxCell id="0uc-5ro3ScA0iMTsEKho-36" value="" style="sketch=0;points=[[0.015,0.015,0],[0.985,0.015,0],[0.985,0.985,0],[0.015,0.985,0],[0.25,0,0],[0.5,0,0],[0.75,0,0],[1,0.25,0],[1,0.5,0],[1,0.75,0],[0.75,1,0],[0.5,1,0],[0.25,1,0],[0,0.75,0],[0,0.5,0],[0,0.25,0]];verticalLabelPosition=bottom;html=1;verticalAlign=top;aspect=fixed;align=center;pointerEvents=1;shape=mxgraph.cisco19.rect;prIcon=firewall;labelBackgroundColor=none;" parent="1" vertex="1">
          <mxGeometry x="650" y="480" width="25.6" height="20" as="geometry" />
        </mxCell>
        <mxCell id="0uc-5ro3ScA0iMTsEKho-37" value="" style="sketch=0;points=[[0.015,0.015,0],[0.985,0.015,0],[0.985,0.985,0],[0.015,0.985,0],[0.25,0,0],[0.5,0,0],[0.75,0,0],[1,0.25,0],[1,0.5,0],[1,0.75,0],[0.75,1,0],[0.5,1,0],[0.25,1,0],[0,0.75,0],[0,0.5,0],[0,0.25,0]];verticalLabelPosition=bottom;html=1;verticalAlign=top;aspect=fixed;align=center;pointerEvents=1;shape=mxgraph.cisco19.rect;prIcon=firewall;labelBackgroundColor=none;" parent="1" vertex="1">
          <mxGeometry x="650" y="510" width="25.6" height="20" as="geometry" />
        </mxCell>
        <mxCell id="0uc-5ro3ScA0iMTsEKho-38" value="" style="sketch=0;points=[[0.015,0.015,0],[0.985,0.015,0],[0.985,0.985,0],[0.015,0.985,0],[0.25,0,0],[0.5,0,0],[0.75,0,0],[1,0.25,0],[1,0.5,0],[1,0.75,0],[0.75,1,0],[0.5,1,0],[0.25,1,0],[0,0.75,0],[0,0.5,0],[0,0.25,0]];verticalLabelPosition=bottom;html=1;verticalAlign=top;aspect=fixed;align=center;pointerEvents=1;shape=mxgraph.cisco19.rect;prIcon=firewall;labelBackgroundColor=none;" parent="1" vertex="1">
          <mxGeometry x="650" y="540" width="25.6" height="20" as="geometry" />
        </mxCell>
        <mxCell id="0uc-5ro3ScA0iMTsEKho-39" value="" style="sketch=0;points=[[0.015,0.015,0],[0.985,0.015,0],[0.985,0.985,0],[0.015,0.985,0],[0.25,0,0],[0.5,0,0],[0.75,0,0],[1,0.25,0],[1,0.5,0],[1,0.75,0],[0.75,1,0],[0.5,1,0],[0.25,1,0],[0,0.75,0],[0,0.5,0],[0,0.25,0]];verticalLabelPosition=bottom;html=1;verticalAlign=top;aspect=fixed;align=center;pointerEvents=1;shape=mxgraph.cisco19.rect;prIcon=firewall;labelBackgroundColor=none;" parent="1" vertex="1">
          <mxGeometry x="650" y="570" width="25.6" height="20" as="geometry" />
        </mxCell>
        <mxCell id="0uc-5ro3ScA0iMTsEKho-42" value="" style="endArrow=none;html=1;rounded=0;strokeWidth=2;strokeColor=#FFFFFF;entryX=0;entryY=0.5;entryDx=0;entryDy=0;" parent="1" edge="1">
          <mxGeometry relative="1" as="geometry">
            <mxPoint x="619" y="370" as="sourcePoint" />
            <mxPoint x="699" y="370" as="targetPoint" />
          </mxGeometry>
        </mxCell>
        <mxCell id="0uc-5ro3ScA0iMTsEKho-40" value="" style="endArrow=none;html=1;rounded=0;strokeWidth=2;strokeColor=#FFFFFF;" parent="1" edge="1">
          <mxGeometry width="50" height="50" relative="1" as="geometry">
            <mxPoint x="620" y="620" as="sourcePoint" />
            <mxPoint x="620" y="370" as="targetPoint" />
          </mxGeometry>
        </mxCell>
        <mxCell id="0uc-5ro3ScA0iMTsEKho-43" value="" style="endArrow=none;html=1;rounded=0;strokeWidth=2;strokeColor=#FFFFFF;entryX=0;entryY=0.5;entryDx=0;entryDy=0;" parent="1" target="LO9D87MCyvLMnB-GvMRJ-28" edge="1">
          <mxGeometry relative="1" as="geometry">
            <mxPoint x="620" y="400" as="sourcePoint" />
            <mxPoint x="709" y="380" as="targetPoint" />
          </mxGeometry>
        </mxCell>
        <mxCell id="0uc-5ro3ScA0iMTsEKho-44" value="" style="endArrow=none;html=1;rounded=0;strokeWidth=2;strokeColor=#FFFFFF;entryX=0;entryY=0.5;entryDx=0;entryDy=0;" parent="1" edge="1">
          <mxGeometry relative="1" as="geometry">
            <mxPoint x="620" y="523" as="sourcePoint" />
            <mxPoint x="820" y="523" as="targetPoint" />
          </mxGeometry>
        </mxCell>
        <mxCell id="0uc-5ro3ScA0iMTsEKho-45" value="" style="endArrow=none;html=1;rounded=0;strokeWidth=2;strokeColor=#FFFFFF;entryX=0;entryY=0.5;entryDx=0;entryDy=0;" parent="1" edge="1">
          <mxGeometry relative="1" as="geometry">
            <mxPoint x="619" y="462" as="sourcePoint" />
            <mxPoint x="819" y="462" as="targetPoint" />
          </mxGeometry>
        </mxCell>
        <mxCell id="0uc-5ro3ScA0iMTsEKho-46" value="" style="endArrow=none;html=1;rounded=0;strokeWidth=2;strokeColor=#FFFFFF;entryX=0;entryY=0.5;entryDx=0;entryDy=0;" parent="1" edge="1">
          <mxGeometry relative="1" as="geometry">
            <mxPoint x="620" y="579" as="sourcePoint" />
            <mxPoint x="820" y="579" as="targetPoint" />
          </mxGeometry>
        </mxCell>
        <mxCell id="0uc-5ro3ScA0iMTsEKho-47" value="CIBIL Services" style="rounded=1;arcSize=10;whiteSpace=wrap;html=1;align=center;fontColor=#FFFFFF;fillColor=#000033;strokeColor=#FFFFFF;" parent="1" vertex="1">
          <mxGeometry x="700" y="590" width="100" height="40" as="geometry" />
        </mxCell>
        <mxCell id="0uc-5ro3ScA0iMTsEKho-48" value="" style="endArrow=none;html=1;rounded=0;strokeWidth=2;strokeColor=#FFFFFF;entryX=0;entryY=0.5;entryDx=0;entryDy=0;" parent="1" edge="1">
          <mxGeometry relative="1" as="geometry">
            <mxPoint x="621" y="492" as="sourcePoint" />
            <mxPoint x="701" y="492" as="targetPoint" />
          </mxGeometry>
        </mxCell>
        <mxCell id="0uc-5ro3ScA0iMTsEKho-49" value="" style="endArrow=none;html=1;rounded=0;strokeWidth=2;strokeColor=#FFFFFF;entryX=0;entryY=0.5;entryDx=0;entryDy=0;" parent="1" edge="1">
          <mxGeometry relative="1" as="geometry">
            <mxPoint x="619" y="431" as="sourcePoint" />
            <mxPoint x="699" y="431" as="targetPoint" />
          </mxGeometry>
        </mxCell>
        <mxCell id="0uc-5ro3ScA0iMTsEKho-50" value="" style="endArrow=none;html=1;rounded=0;strokeWidth=2;strokeColor=#FFFFFF;entryX=0;entryY=0.5;entryDx=0;entryDy=0;" parent="1" edge="1">
          <mxGeometry relative="1" as="geometry">
            <mxPoint x="649" y="400" as="sourcePoint" />
            <mxPoint x="729" y="400" as="targetPoint" />
          </mxGeometry>
        </mxCell>
        <mxCell id="0uc-5ro3ScA0iMTsEKho-51" value="" style="endArrow=none;html=1;rounded=0;strokeWidth=2;strokeColor=#FFFFFF;entryX=0;entryY=0.5;entryDx=0;entryDy=0;" parent="1" edge="1">
          <mxGeometry relative="1" as="geometry">
            <mxPoint x="620" y="620" as="sourcePoint" />
            <mxPoint x="700" y="620" as="targetPoint" />
          </mxGeometry>
        </mxCell>
        <mxCell id="0uc-5ro3ScA0iMTsEKho-52" value="" style="endArrow=none;html=1;rounded=0;strokeWidth=2;strokeColor=#FFFFFF;entryX=0;entryY=0.5;entryDx=0;entryDy=0;" parent="1" edge="1">
          <mxGeometry relative="1" as="geometry">
            <mxPoint x="620" y="552" as="sourcePoint" />
            <mxPoint x="700" y="552" as="targetPoint" />
          </mxGeometry>
        </mxCell>
        <mxCell id="0uc-5ro3ScA0iMTsEKho-53" value="" style="endArrow=classic;html=1;rounded=0;strokeWidth=2;strokeColor=#FFFFFF;" parent="1" edge="1">
          <mxGeometry width="50" height="50" relative="1" as="geometry">
            <mxPoint x="460" y="506" as="sourcePoint" />
            <mxPoint x="620" y="506" as="targetPoint" />
          </mxGeometry>
        </mxCell>
        <mxCell id="0uc-5ro3ScA0iMTsEKho-56" value="WEB SERVER" style="text;html=1;align=center;verticalAlign=middle;whiteSpace=wrap;rounded=0;fontStyle=1;labelBackgroundColor=none;fontColor=#FFFFFF;fontSize=12;" parent="1" vertex="1">
          <mxGeometry x="334.2" y="270" width="91.6" height="30" as="geometry" />
        </mxCell>
        <mxCell id="0uc-5ro3ScA0iMTsEKho-57" value="APP SERVER" style="text;html=1;align=center;verticalAlign=middle;whiteSpace=wrap;rounded=0;fontStyle=1;labelBackgroundColor=none;fontColor=#FFFFFF;fontSize=12;" parent="1" vertex="1">
          <mxGeometry x="401.9" y="520" width="91.6" height="30" as="geometry" />
        </mxCell>
        <mxCell id="5pVhI620SrLaMRhK8OMT-7" value="" style="edgeStyle=orthogonalEdgeStyle;rounded=0;orthogonalLoop=1;jettySize=auto;html=1;" edge="1" parent="1" source="0uc-5ro3ScA0iMTsEKho-59" target="0uc-5ro3ScA0iMTsEKho-66">
          <mxGeometry relative="1" as="geometry" />
        </mxCell>
        <mxCell id="0uc-5ro3ScA0iMTsEKho-59" value="DOC&lt;br&gt;&amp;nbsp;SERVER" style="text;html=1;align=center;verticalAlign=middle;whiteSpace=wrap;rounded=0;fontStyle=1;labelBackgroundColor=none;fontColor=#FFFFFF;fontSize=12;" parent="1" vertex="1">
          <mxGeometry x="267.4" y="595" width="61.6" height="30" as="geometry" />
        </mxCell>
        <mxCell id="0uc-5ro3ScA0iMTsEKho-60" value="WAF SERVER" style="text;html=1;align=center;verticalAlign=middle;whiteSpace=wrap;rounded=0;fontStyle=1;labelBackgroundColor=none;fontColor=#FFFFFF;fontSize=12;" parent="1" vertex="1">
          <mxGeometry x="160" y="160" width="91.6" height="30" as="geometry" />
        </mxCell>
        <mxCell id="0uc-5ro3ScA0iMTsEKho-61" value="APP SERVER" style="text;html=1;align=center;verticalAlign=middle;whiteSpace=wrap;rounded=0;fontStyle=1;labelBackgroundColor=none;fontColor=#FFFFFF;fontSize=12;" parent="1" vertex="1">
          <mxGeometry x="71" y="545" width="91.6" height="30" as="geometry" />
        </mxCell>
        <mxCell id="0uc-5ro3ScA0iMTsEKho-62" value="DATABASE&amp;nbsp; SERVER" style="text;html=1;align=center;verticalAlign=middle;whiteSpace=wrap;rounded=0;fontStyle=1;labelBackgroundColor=none;fontColor=#FFFFFF;fontSize=12;" parent="1" vertex="1">
          <mxGeometry x="58" y="790" width="130" height="30" as="geometry" />
        </mxCell>
        <mxCell id="0uc-5ro3ScA0iMTsEKho-63" value="DATABASE&amp;nbsp; SERVER" style="text;html=1;align=center;verticalAlign=middle;whiteSpace=wrap;rounded=0;fontStyle=1;labelBackgroundColor=none;fontColor=#FFFFFF;fontSize=12;" parent="1" vertex="1">
          <mxGeometry x="374" y="785" width="170" height="30" as="geometry" />
        </mxCell>
        <mxCell id="0uc-5ro3ScA0iMTsEKho-65" value="&lt;span style=&quot;&quot;&gt;PORTS : 1522 - 1523&lt;/span&gt;" style="text;html=1;align=center;verticalAlign=middle;whiteSpace=wrap;rounded=0;fontStyle=1;labelBackgroundColor=none;fontColor=#FFFFFF;fontSize=12;" parent="1" vertex="1">
          <mxGeometry x="414" y="670" width="170" height="30" as="geometry" />
        </mxCell>
        <mxCell id="0uc-5ro3ScA0iMTsEKho-66" value="&lt;span style=&quot;&quot;&gt;PORTS : 1522 - 1523&lt;/span&gt;" style="text;html=1;align=center;verticalAlign=middle;whiteSpace=wrap;rounded=0;fontStyle=1;labelBackgroundColor=none;fontColor=#FFFFFF;fontSize=12;" parent="1" vertex="1">
          <mxGeometry x="116.80000000000001" y="670" width="170" height="30" as="geometry" />
        </mxCell>
        <mxCell id="0uc-5ro3ScA0iMTsEKho-67" value="&lt;span style=&quot;&quot;&gt;PORTS : 7056 - 7061&lt;/span&gt;" style="text;html=1;align=center;verticalAlign=middle;whiteSpace=wrap;rounded=0;fontStyle=1;labelBackgroundColor=none;fontColor=#FFFFFF;fontSize=12;" parent="1" vertex="1">
          <mxGeometry x="452" y="340" width="170" height="30" as="geometry" />
        </mxCell>
        <mxCell id="0uc-5ro3ScA0iMTsEKho-69" value="" style="edgeStyle=orthogonalEdgeStyle;rounded=0;orthogonalLoop=1;jettySize=auto;html=1;exitX=1;exitY=0.5;exitDx=0;exitDy=0;exitPerimeter=0;" parent="1" source="LO9D87MCyvLMnB-GvMRJ-50" target="0uc-5ro3ScA0iMTsEKho-68" edge="1">
          <mxGeometry relative="1" as="geometry">
            <mxPoint x="160" y="65" as="sourcePoint" />
            <mxPoint x="320" y="110" as="targetPoint" />
          </mxGeometry>
        </mxCell>
        <mxCell id="0uc-5ro3ScA0iMTsEKho-68" value="&lt;span style=&quot;&quot;&gt;PORT : 443&lt;/span&gt;" style="text;html=1;align=center;verticalAlign=middle;whiteSpace=wrap;rounded=0;fontStyle=1;labelBackgroundColor=none;fontColor=#FFFFFF;fontSize=12;" parent="1" vertex="1">
          <mxGeometry x="121.6" y="50" width="170" height="30" as="geometry" />
        </mxCell>
        <mxCell id="0uc-5ro3ScA0iMTsEKho-70" value="&lt;span style=&quot;&quot;&gt;PORT : 443&lt;/span&gt;" style="text;html=1;align=center;verticalAlign=middle;whiteSpace=wrap;rounded=0;fontStyle=1;labelBackgroundColor=none;fontColor=#FFFFFF;fontSize=12;" parent="1" vertex="1">
          <mxGeometry x="141.2" y="250" width="170" height="30" as="geometry" />
        </mxCell>
        <mxCell id="0uc-5ro3ScA0iMTsEKho-72" value="" style="edgeStyle=orthogonalEdgeStyle;rounded=0;orthogonalLoop=1;jettySize=auto;html=1;" parent="1" source="0uc-5ro3ScA0iMTsEKho-71" target="0uc-5ro3ScA0iMTsEKho-59" edge="1">
          <mxGeometry relative="1" as="geometry" />
        </mxCell>
        <mxCell id="0uc-5ro3ScA0iMTsEKho-71" value="&lt;span style=&quot;&quot;&gt;PORT : 8089&lt;/span&gt;" style="text;html=1;align=center;verticalAlign=middle;whiteSpace=wrap;rounded=0;fontStyle=1;labelBackgroundColor=none;fontColor=#FFFFFF;fontSize=12;" parent="1" vertex="1">
          <mxGeometry x="190" y="515" width="80" height="30" as="geometry" />
        </mxCell>
        <mxCell id="0uc-5ro3ScA0iMTsEKho-73" value="&lt;span style=&quot;&quot;&gt;PORT : 22&lt;/span&gt;" style="text;html=1;align=center;verticalAlign=middle;whiteSpace=wrap;rounded=0;fontStyle=1;labelBackgroundColor=none;fontColor=#FFFFFF;fontSize=12;" parent="1" vertex="1">
          <mxGeometry x="291.6" y="585" width="170" height="30" as="geometry" />
        </mxCell>
        <mxCell id="0uc-5ro3ScA0iMTsEKho-74" value="&lt;span style=&quot;&quot;&gt;PORT : 443&lt;/span&gt;" style="text;html=1;align=center;verticalAlign=middle;whiteSpace=wrap;rounded=0;fontStyle=1;labelBackgroundColor=none;fontColor=#FFFFFF;fontSize=12;" parent="1" vertex="1">
          <mxGeometry x="480" y="50" width="170" height="30" as="geometry" />
        </mxCell>
        <mxCell id="5pVhI620SrLaMRhK8OMT-1" value="&lt;b&gt;&lt;font color=&quot;#ffffff&quot;&gt;DC: 10.189.45.143&lt;br&gt;DR: 10.176.32.8&amp;nbsp;&lt;/font&gt;&lt;/b&gt;" style="text;html=1;strokeColor=none;fillColor=none;align=left;verticalAlign=middle;whiteSpace=wrap;rounded=0;" vertex="1" parent="1">
          <mxGeometry x="445" y="196" width="120" height="30" as="geometry" />
        </mxCell>
        <mxCell id="5pVhI620SrLaMRhK8OMT-2" value="&lt;font color=&quot;#ffffff&quot;&gt;&lt;b&gt;&lt;div style=&quot;&quot;&gt;DC: 10.191.208.185&lt;/div&gt;DR: 10.176.116.185&lt;/b&gt;&lt;/font&gt;&lt;b&gt;&lt;font color=&quot;#ffffff&quot;&gt;&amp;nbsp;&lt;/font&gt;&lt;/b&gt;" style="text;html=1;strokeColor=none;fillColor=none;align=left;verticalAlign=middle;whiteSpace=wrap;rounded=0;" vertex="1" parent="1">
          <mxGeometry x="194" y="95" width="120" height="30" as="geometry" />
        </mxCell>
        <mxCell id="5pVhI620SrLaMRhK8OMT-3" value="&lt;b&gt;&lt;font color=&quot;#ffffff&quot;&gt;DC: 10.189.32.57&lt;br&gt;DR: 10.176.41.196&amp;nbsp;&lt;/font&gt;&lt;/b&gt;" style="text;html=1;strokeColor=none;fillColor=none;align=left;verticalAlign=middle;whiteSpace=wrap;rounded=0;" vertex="1" parent="1">
          <mxGeometry x="447" y="464" width="120" height="30" as="geometry" />
        </mxCell>
        <mxCell id="5pVhI620SrLaMRhK8OMT-4" value="&lt;b&gt;&lt;font color=&quot;#ffffff&quot;&gt;DC: 10.189.196.100&lt;br&gt;DR: 10.176.44.12&lt;/font&gt;&lt;/b&gt;" style="text;html=1;strokeColor=none;fillColor=none;align=left;verticalAlign=middle;whiteSpace=wrap;rounded=0;" vertex="1" parent="1">
          <mxGeometry x="273" y="760" width="120" height="30" as="geometry" />
        </mxCell>
        <mxCell id="5pVhI620SrLaMRhK8OMT-5" value="&lt;b&gt;&lt;font color=&quot;#ffffff&quot;&gt;DC: 10.189.34.65&lt;br&gt;&lt;/font&gt;&lt;/b&gt;" style="text;html=1;strokeColor=none;fillColor=none;align=left;verticalAlign=middle;whiteSpace=wrap;rounded=0;" vertex="1" parent="1">
          <mxGeometry x="100.6" y="766" width="120" height="30" as="geometry" />
        </mxCell>
        <mxCell id="5pVhI620SrLaMRhK8OMT-6" value="&lt;b&gt;&lt;font color=&quot;#ffffff&quot;&gt;DC: 10.189.32.54&lt;br&gt;DR: 10.176.41.196&amp;nbsp;&lt;/font&gt;&lt;/b&gt;" style="text;html=1;strokeColor=none;fillColor=none;align=left;verticalAlign=middle;whiteSpace=wrap;rounded=0;" vertex="1" parent="1">
          <mxGeometry x="274" y="516" width="120" height="30" as="geometry" />
        </mxCell>
        <mxCell id="5pVhI620SrLaMRhK8OMT-9" value="&lt;b&gt;&lt;font color=&quot;#ffffff&quot;&gt;DC: 10.189.34.64&lt;br&gt;&lt;/font&gt;&lt;/b&gt;" style="text;html=1;strokeColor=none;fillColor=none;align=left;verticalAlign=middle;whiteSpace=wrap;rounded=0;" vertex="1" parent="1">
          <mxGeometry x="65.8" y="570" width="120" height="30" as="geometry" />
        </mxCell>
        <mxCell id="5pVhI620SrLaMRhK8OMT-17" style="edgeStyle=orthogonalEdgeStyle;rounded=0;orthogonalLoop=1;jettySize=auto;html=1;" edge="1" parent="1" target="LO9D87MCyvLMnB-GvMRJ-1">
          <mxGeometry relative="1" as="geometry">
            <mxPoint x="327.1637693913501" y="137.45047480825497" as="sourcePoint" />
          </mxGeometry>
        </mxCell>
        <mxCell id="5pVhI620SrLaMRhK8OMT-19" value="&lt;font color=&quot;#ffffff&quot;&gt;&lt;b&gt;&lt;div style=&quot;&quot;&gt;DC: 2405:a700:14:15d::25&lt;/div&gt;&lt;div style=&quot;&quot;&gt;DR: 2405:a700:1b:17::25&lt;/div&gt;&lt;/b&gt;&lt;/font&gt;" style="text;html=1;strokeColor=none;fillColor=none;align=left;verticalAlign=middle;whiteSpace=wrap;rounded=0;" vertex="1" parent="1">
          <mxGeometry x="192.6" y="130" width="158.4" height="30" as="geometry" />
        </mxCell>
        <mxCell id="5pVhI620SrLaMRhK8OMT-20" value="" style="labelPosition=right;align=left;strokeWidth=2;shape=mxgraph.mockup.markup.curlyBrace;html=1;shadow=0;dashed=0;strokeColor=#999999;direction=north;fontStyle=1" vertex="1" parent="1">
          <mxGeometry x="170" y="96" width="36" height="27" as="geometry" />
        </mxCell>
        <mxCell id="5pVhI620SrLaMRhK8OMT-21" value="" style="labelPosition=right;align=left;strokeWidth=2;shape=mxgraph.mockup.markup.curlyBrace;html=1;shadow=0;dashed=0;strokeColor=#999999;direction=north;fontStyle=1" vertex="1" parent="1">
          <mxGeometry x="169" y="131" width="36" height="27" as="geometry" />
        </mxCell>
        <mxCell id="5pVhI620SrLaMRhK8OMT-22" value="&lt;font color=&quot;#ffffff&quot;&gt;&lt;b&gt;IPv4&lt;/b&gt;&lt;/font&gt;" style="text;html=1;strokeColor=none;fillColor=none;align=center;verticalAlign=middle;whiteSpace=wrap;rounded=0;" vertex="1" parent="1">
          <mxGeometry x="137" y="94" width="60" height="30" as="geometry" />
        </mxCell>
        <mxCell id="5pVhI620SrLaMRhK8OMT-23" value="&lt;font color=&quot;#ffffff&quot;&gt;&lt;b&gt;IPv6&lt;/b&gt;&lt;/font&gt;" style="text;html=1;strokeColor=none;fillColor=none;align=center;verticalAlign=middle;whiteSpace=wrap;rounded=0;" vertex="1" parent="1">
          <mxGeometry x="137" y="128" width="60" height="30" as="geometry" />
        </mxCell>
        <mxCell id="5pVhI620SrLaMRhK8OMT-24" value="&lt;font color=&quot;#ffffff&quot;&gt;&lt;b&gt;IPv4&lt;/b&gt;&lt;/font&gt;" style="text;html=1;strokeColor=none;fillColor=none;align=center;verticalAlign=middle;whiteSpace=wrap;rounded=0;" vertex="1" parent="1">
          <mxGeometry x="372" y="197" width="60" height="30" as="geometry" />
        </mxCell>
        <mxCell id="5pVhI620SrLaMRhK8OMT-25" value="" style="labelPosition=right;align=left;strokeWidth=2;shape=mxgraph.mockup.markup.curlyBrace;html=1;shadow=0;dashed=0;strokeColor=#999999;direction=north;fontStyle=1" vertex="1" parent="1">
          <mxGeometry x="420" y="199" width="36" height="27" as="geometry" />
        </mxCell>
        <mxCell id="5pVhI620SrLaMRhK8OMT-26" value="&lt;font color=&quot;#ffffff&quot;&gt;&lt;b&gt;IPv6&lt;/b&gt;&lt;/font&gt;" style="text;html=1;strokeColor=none;fillColor=none;align=center;verticalAlign=middle;whiteSpace=wrap;rounded=0;" vertex="1" parent="1">
          <mxGeometry x="372" y="222" width="60" height="30" as="geometry" />
        </mxCell>
        <mxCell id="5pVhI620SrLaMRhK8OMT-27" value="" style="labelPosition=right;align=left;strokeWidth=2;shape=mxgraph.mockup.markup.curlyBrace;html=1;shadow=0;dashed=0;strokeColor=#999999;direction=north;fontStyle=1" vertex="1" parent="1">
          <mxGeometry x="404" y="232" width="36" height="27" as="geometry" />
        </mxCell>
        <mxCell id="5pVhI620SrLaMRhK8OMT-28" value="&lt;font color=&quot;#ffffff&quot;&gt;&lt;b&gt;&lt;div style=&quot;&quot;&gt;DC: 2405:a700:14:100::29&lt;/div&gt;DR: 2405:a700:1b:13::4&lt;/b&gt;&lt;/font&gt;&lt;b&gt;&lt;font color=&quot;#ffffff&quot;&gt;&amp;nbsp;&lt;/font&gt;&lt;/b&gt;" style="text;html=1;strokeColor=none;fillColor=none;align=left;verticalAlign=middle;whiteSpace=wrap;rounded=0;" vertex="1" parent="1">
          <mxGeometry x="426" y="229" width="152" height="30" as="geometry" />
        </mxCell>
      </root>
    </mxGraphModel>
  </diagram>
</mxfile>
